<svg version="1.1" id="Layer_1" xmlns="http://www.w3.org/2000/svg" xmlns:xlink="http://www.w3.org/1999/xlink" x="0px" y="0px"
	 width="100%" viewBox="0 0 606 568" enable-background="new 0 0 606 568" xml:space="preserve">
<path fill="#000000" opacity="1.000000" stroke="none" 
	d="
M413.000000,569.000000 
	C275.333344,569.000000 138.166672,569.000000 1.000000,569.000000 
	C1.000000,379.666656 1.000000,190.333328 1.000000,1.000000 
	C203.000000,1.000000 405.000000,1.000000 607.000000,1.000000 
	C607.000000,190.333328 607.000000,379.666656 607.000000,569.000000 
	C542.500000,569.000000 478.000000,569.000000 413.000000,569.000000 
M124.840164,366.651306 
	C125.930725,367.907867 126.925354,369.265442 128.125992,370.406128 
	C152.613174,393.671204 182.613403,402.739777 215.528259,404.229614 
	C215.949707,404.248718 216.400726,403.614441 217.466431,402.811798 
	C215.795242,402.436096 214.893066,402.084564 213.978790,402.049530 
	C193.005753,401.246185 173.295471,395.717957 154.477051,386.554077 
	C129.849503,374.561401 107.809517,350.311707 110.776390,314.464691 
	C112.350319,295.447876 120.255821,279.640381 134.166183,266.787872 
	C144.719086,257.037476 157.149292,250.940765 171.390976,248.792679 
	C175.345520,248.196182 177.400314,246.983566 177.358414,242.278381 
	C177.317780,237.715057 178.308716,232.939499 179.823349,228.597870 
	C190.805511,197.117828 227.581207,186.196732 254.166702,206.347473 
	C255.549530,207.395630 257.030487,208.314316 258.940887,209.617386 
	C259.898468,207.462021 260.577057,205.992172 261.209564,204.502716 
	C289.817474,137.135651 378.627167,119.935379 430.281799,171.839783 
	C449.447723,191.098404 459.387543,214.544754 460.723694,241.617249 
	C460.886200,244.909805 461.944519,246.616653 465.081451,247.862701 
	C515.994202,268.086517 531.494324,329.583557 496.309082,371.373444 
	C495.578766,372.240906 495.113800,373.331757 494.525024,374.318390 
	C496.239563,374.347382 497.294617,373.858734 497.962860,373.050385 
	C513.782776,353.913086 520.763489,332.075317 516.430725,307.453430 
	C511.231476,277.907837 494.206421,257.456512 466.546234,245.921234 
	C464.048950,244.879776 463.198792,243.543945 462.866608,240.829208 
	C461.859100,232.595398 461.129272,224.204178 458.904541,216.262772 
	C444.557404,165.049271 393.607391,131.512527 339.944366,140.475937 
	C306.033051,146.140198 280.509094,164.497345 263.615417,194.579865 
	C261.597931,198.172379 259.788757,201.881851 257.736664,205.817825 
	C255.165329,204.128433 252.854919,202.541046 250.478439,201.059662 
	C220.192154,182.180435 178.830551,202.382675 175.179276,237.827911 
	C174.381714,245.570358 174.381729,245.570358 166.787689,247.171188 
	C113.159302,258.476105 90.049614,323.323853 124.840164,366.651306 
M420.271759,402.765411 
	C425.788879,396.430664 427.141205,388.842834 426.512146,380.825226 
	C425.085999,362.648895 412.496063,355.548462 396.243225,363.601074 
	C395.992920,363.725067 395.627441,363.616547 394.671021,363.616547 
	C394.671021,356.163666 394.671021,348.663116 394.671021,341.150970 
	C389.923553,341.150970 385.827240,341.150970 381.681641,341.150970 
	C381.681641,363.195129 381.681641,384.952057 381.681641,407.192749 
	C386.206757,406.619049 391.275848,409.957306 393.998383,403.780151 
	C404.221680,410.256714 411.670044,410.070984 420.271759,402.765411 
M377.064178,312.264526 
	C383.163055,325.582245 392.169189,328.158661 407.291199,321.031403 
	C410.704132,326.609161 415.682312,323.046112 419.926300,324.114471 
	C419.926300,301.518036 419.926300,279.742554 419.926300,257.734375 
	C415.638763,257.734375 411.565430,257.734375 407.082764,257.734375 
	C407.082764,261.670868 407.082733,265.302368 407.082733,268.933838 
	C407.082733,272.512543 407.082764,276.091278 407.082764,280.350189 
	C405.807648,279.670135 405.274658,279.349396 404.712799,279.091522 
	C391.435394,272.998138 378.975830,278.872711 376.385468,293.263214 
	C375.331360,299.119263 376.656677,305.403656 377.064178,312.264526 
M206.017181,275.347046 
	C214.037430,269.645599 222.878326,272.357269 231.449814,273.304932 
	C232.772324,262.437897 232.396317,261.952698 222.264603,260.907135 
	C221.105194,260.787506 219.950623,260.611603 218.789154,260.522919 
	C202.009232,259.241699 190.098587,267.547882 186.481644,283.676056 
	C184.641312,291.882172 185.016937,300.237915 187.945877,308.269623 
	C190.408112,315.021515 194.921753,320.045074 201.672867,322.584778 
	C211.018814,326.100555 220.583176,325.941925 230.081116,323.116211 
	C231.185852,322.787476 232.600449,321.412720 232.748535,320.364288 
	C233.128174,317.676453 232.875290,314.899292 232.875290,311.849701 
	C228.672211,312.538513 225.255524,313.281891 221.799088,313.626770 
	C214.592743,314.345856 207.799194,313.646362 202.965530,307.212708 
	C198.578064,301.372955 198.045654,280.766632 206.017181,275.347046 
M257.557861,365.524200 
	C264.216400,351.198334 276.548767,355.656036 287.732086,356.647369 
	C288.935608,345.936371 288.935608,345.936340 279.699402,344.289368 
	C263.588196,341.416443 248.757706,348.127625 244.509186,361.705841 
	C242.299469,368.768097 241.917374,376.804504 242.530060,384.251129 
	C243.402390,394.853424 248.949722,403.095245 259.651001,406.604797 
	C268.416290,409.479401 277.352295,409.180847 286.144653,406.650787 
	C287.362244,406.300446 288.678772,404.377899 288.928345,402.998413 
	C289.378174,400.511963 289.055481,397.885742 289.055481,395.899170 
	C282.428925,396.262878 276.460785,397.072266 270.543945,396.793335 
	C263.143768,396.444519 258.228088,392.329224 257.219421,384.974854 
	C256.381226,378.863464 257.203217,372.524414 257.557861,365.524200 
M339.363342,314.322388 
	C338.432831,311.633911 336.798065,308.970825 336.699921,306.252289 
	C336.365265,296.983276 336.571808,287.694733 336.571808,278.312836 
	C331.921661,278.312836 327.852417,278.312836 323.567596,278.312836 
	C323.567596,290.373810 323.162567,302.165894 323.709686,313.913605 
	C324.075470,321.766907 328.816559,325.765289 336.699554,325.015564 
	C342.251160,324.487549 347.644348,322.293732 353.165222,320.828583 
	C355.355286,327.233948 360.790009,322.815674 364.801544,324.133728 
	C364.801544,308.371765 364.801544,293.325531 364.801544,278.362091 
	C360.388580,278.362091 356.316833,278.362091 351.969604,278.362091 
	C351.969604,288.332825 351.632660,297.982635 352.109619,307.592041 
	C352.353729,312.509735 350.060547,314.205292 346.043427,314.786896 
	C344.111450,315.066589 342.093933,314.755310 339.363342,314.322388 
M313.536041,301.428497 
	C313.464630,300.100739 313.446930,298.767548 313.313446,297.446075 
	C312.094727,285.381927 304.812958,277.585327 294.097168,276.842957 
	C279.691498,275.845001 271.417725,281.603302 268.427582,294.708130 
	C264.007721,314.079071 276.897369,327.986938 296.363373,324.850708 
	C306.554413,323.208771 312.208008,315.778992 313.536041,301.428497 
M364.295471,361.323517 
	C361.669403,361.323517 359.043335,361.323517 355.852142,361.323517 
	C355.852142,371.715729 355.636047,381.654236 355.961731,391.574951 
	C356.086792,395.384247 354.523285,396.964172 351.281830,397.902527 
	C343.647156,400.112640 340.260193,397.644684 340.208405,389.586395 
	C340.148743,380.301544 340.194550,371.015961 340.194550,361.639832 
	C335.613159,361.639832 331.541504,361.639832 327.174683,361.639832 
	C327.174683,373.735962 326.829376,385.532349 327.295502,397.296600 
	C327.608704,405.200470 333.686890,409.870758 341.822144,408.579224 
	C346.935944,407.767365 351.820343,405.510773 356.911224,403.868927 
	C357.264343,404.596313 357.905243,405.916412 358.452026,407.042725 
	C362.017578,407.042725 365.308502,407.042725 368.920166,407.042725 
	C368.920166,392.645966 368.852936,378.519165 368.974152,364.393982 
	C368.999908,361.395020 367.417419,361.175964 364.295471,361.323517 
M433.666412,400.485535 
	C433.044373,404.264069 434.442291,406.679932 438.412170,407.004974 
	C444.297791,407.486847 450.277039,408.576630 456.070740,407.983734 
	C463.228638,407.251251 467.617615,402.034515 468.349457,395.557129 
	C469.103638,388.881592 466.354401,384.609863 459.085754,381.365601 
	C456.210266,380.082184 453.087769,379.260132 450.400757,377.679077 
	C448.640106,376.643097 447.458862,374.622559 446.018097,373.042969 
	C448.026703,371.974854 450.009064,370.072937 452.049255,370.008728 
	C456.571899,369.866425 461.123596,370.646606 467.262207,371.192932 
	C465.777802,367.535461 465.392334,363.294128 463.433411,362.362946 
	C457.005798,359.307648 449.918976,359.037933 443.055542,361.523560 
	C437.851959,363.408020 434.288605,366.853210 433.866302,372.754700 
	C433.419922,378.992279 436.297516,383.324615 441.774475,385.916290 
	C445.217743,387.545654 449.024109,388.469513 452.316040,390.331390 
	C454.011322,391.290192 454.937744,393.608398 456.211578,395.312347 
	C454.348816,396.572449 452.491760,398.875885 450.622162,398.886139 
	C446.032593,398.911224 441.393402,398.098053 436.861664,397.186920 
	C434.370544,396.686096 433.386444,397.077271 433.666412,400.485535 
M298.108795,356.504211 
	C298.109436,368.823517 297.973785,381.145325 298.203064,393.460388 
	C298.263092,396.686066 298.877106,400.168976 300.258423,403.042633 
	C302.585724,407.884186 310.431183,409.741394 316.228760,407.060211 
	C320.673218,405.004822 317.787476,401.235992 318.199463,397.829956 
	C311.884949,399.024048 311.215118,395.469788 311.251007,390.852844 
	C311.363525,376.370239 311.291626,361.886200 311.291229,347.402710 
	C311.291168,345.316772 311.291199,343.230835 311.291199,341.238464 
	C306.542664,341.238464 302.474518,341.238464 298.108795,341.238464 
	C298.108795,346.232239 298.108795,350.869232 298.108795,356.504211 
M243.921875,257.453339 
	C243.249191,258.857056 242.002594,260.256226 241.991379,261.665222 
	C241.858673,278.327301 241.837997,294.991516 241.990250,311.653320 
	C242.013763,314.225861 242.611099,317.000305 243.715057,319.312836 
	C246.047897,324.199585 254.716812,326.829834 259.953461,323.533569 
	C261.929718,322.289581 261.933868,317.912567 263.210663,313.743774 
	C255.778488,315.756134 254.958542,312.554993 254.994766,307.933441 
	C255.125168,291.293518 255.045990,274.651947 255.045990,257.431824 
	C251.415787,257.431824 248.126877,257.431824 243.921875,257.453339 
M238.629547,140.458450 
	C235.643082,138.188751 234.836090,138.349075 233.841461,141.752808 
	C232.619400,145.934845 231.583908,150.171417 230.467758,154.384415 
	C228.496368,150.565521 227.802917,146.731522 226.601929,143.063705 
	C226.092484,141.507904 224.518112,140.300812 223.427765,138.935226 
	C222.322433,140.308838 220.735214,141.521011 220.209915,143.088959 
	C219.039246,146.583176 218.399185,150.255142 217.542892,153.854691 
	C215.501938,150.584595 214.754959,147.554794 213.956085,144.538727 
	C212.376572,138.575378 212.364700,138.578522 208.117859,139.861023 
	C210.013535,146.034988 211.796387,152.247849 213.900604,158.349899 
	C214.318604,159.562027 215.977707,161.121475 217.046967,161.108215 
	C218.047333,161.095810 219.518372,159.367157 219.919922,158.116867 
	C221.168640,154.228851 222.007889,150.209320 223.005966,146.240799 
	C224.782776,150.147461 225.566452,154.050354 226.813110,157.799286 
	C227.273621,159.184052 228.824188,160.206345 229.877579,161.393951 
	C230.999756,160.207764 232.648483,159.209564 233.150986,157.802124 
	C235.100616,152.341492 236.685669,146.750702 238.629547,140.458450 
M189.448715,173.178757 
	C210.952789,189.504654 242.415787,184.726852 253.462524,172.465439 
	C230.557800,181.299072 208.094788,179.724945 186.017715,169.056671 
	C185.956680,169.530487 185.895645,170.004318 185.834610,170.478134 
	C186.851654,171.263458 187.868698,172.048782 189.448715,173.178757 
M206.734390,158.367477 
	C206.467361,154.421371 206.703400,150.350296 205.764709,146.571014 
	C205.086136,143.838974 203.211441,139.769318 201.225388,139.349960 
	C197.525055,138.568634 193.349014,139.975632 189.395767,140.623260 
	C189.167618,140.660645 189.161453,142.053146 189.043732,142.872437 
	C201.436188,141.951599 201.516754,141.987579 200.978256,148.000992 
	C198.050110,148.248734 195.006287,148.052231 192.248810,148.848007 
	C188.299026,149.987869 186.955673,153.216232 187.836456,157.123474 
	C188.661026,160.781235 191.396530,162.016968 194.915680,162.069763 
	C198.467346,162.123001 201.548676,157.788452 205.477661,160.893997 
	C205.498352,160.910355 206.432678,159.770813 206.734390,158.367477 
M246.820862,158.575623 
	C244.827057,158.158218 242.833252,157.740814 240.609406,157.275253 
	C241.912659,162.093964 248.470932,163.917007 253.295959,160.798157 
	C255.093597,159.636169 256.944580,156.964661 256.911072,155.013443 
	C256.878113,153.094879 254.758041,150.900208 253.039902,149.425400 
	C251.762009,148.328461 249.476471,148.479523 247.990280,147.527512 
	C246.813507,146.773697 246.169067,145.188873 245.288239,143.973068 
	C246.479599,143.292831 247.638382,142.121490 248.869461,142.039780 
	C251.088959,141.892456 253.351746,142.397369 255.615082,142.631790 
	C254.928802,138.522202 248.857697,136.838104 244.270248,139.403564 
	C239.718735,141.948929 239.555969,147.610382 244.029297,150.273865 
	C245.294022,151.026917 246.901199,151.215744 248.140976,151.997101 
	C249.800430,153.042938 251.255081,154.413712 252.797684,155.644989 
	C251.102875,156.642456 249.408066,157.639923 246.820862,158.575623 
M146.633347,225.045853 
	C149.552795,223.710922 152.472244,222.375977 156.944641,220.330948 
	C147.421051,218.959930 142.059708,214.493240 140.587799,205.234039 
	C139.068314,214.581177 133.239578,218.719421 125.084961,221.208649 
	C134.318573,222.335724 138.609756,227.814667 139.872437,236.785446 
	C142.346695,232.286911 144.205338,228.907654 146.633347,225.045853 
M470.405823,147.061615 
	C468.756256,143.842560 467.106689,140.623520 465.384888,137.263504 
	C461.386169,146.365616 461.386169,146.365616 449.452423,153.003067 
	C458.839478,154.086075 463.882507,159.099350 465.622894,168.120987 
	C467.005249,158.888031 472.274872,154.101913 481.598785,152.984436 
	C477.272827,150.797470 474.105927,149.196472 470.405823,147.061615 
M484.210266,218.857758 
	C482.622620,219.397247 481.034973,219.936752 479.447327,220.476257 
	C479.339478,220.933243 479.231628,221.390244 479.123779,221.847244 
	C488.232635,222.261536 492.598267,227.598022 494.508972,236.180740 
	C496.072968,227.195435 501.079956,222.451126 509.867340,220.850098 
	C501.325531,218.992386 495.865265,214.653641 494.679626,205.587631 
	C492.637329,211.424728 490.505035,216.349243 484.210266,218.857758 
M251.898682,105.637337 
	C249.851868,106.346283 247.805069,107.055229 245.758255,107.764175 
	C254.407715,109.522339 258.943207,114.695419 260.726013,123.382195 
	C262.502686,114.708664 267.004608,109.484909 275.970337,108.116570 
	C267.077240,106.415817 262.475098,101.270638 261.458862,93.828445 
	C258.394073,97.792549 255.486511,101.553276 251.898682,105.637337 
M256.064941,166.724594 
	C252.880829,167.253372 249.696732,167.782135 246.512619,168.310913 
	C246.605286,168.736435 246.697968,169.161957 246.790634,169.587479 
	C256.555939,170.457413 256.555939,170.457413 254.637955,180.533737 
	C258.598175,178.027527 259.593292,174.281357 260.261169,170.335266 
	C260.729980,167.565582 259.188263,166.797775 256.064941,166.724594 
z"/>
<path fill="#3F3F3F" opacity="1.000000" stroke="none" 
	d="
M124.625519,366.367706 
	C90.049614,323.323853 113.159302,258.476105 166.787689,247.171188 
	C174.381729,245.570358 174.381714,245.570358 175.179276,237.827911 
	C178.830551,202.382675 220.192154,182.180435 250.478439,201.059662 
	C252.854919,202.541046 255.165329,204.128433 257.736664,205.817825 
	C259.788757,201.881851 261.597931,198.172379 263.615417,194.579865 
	C280.509094,164.497345 306.033051,146.140198 339.944366,140.475937 
	C393.607391,131.512527 444.557404,165.049271 458.904541,216.262772 
	C461.129272,224.204178 461.859100,232.595398 462.866608,240.829208 
	C463.198792,243.543945 464.048950,244.879776 466.546234,245.921234 
	C494.206421,257.456512 511.231476,277.907837 516.430725,307.453430 
	C520.763489,332.075317 513.782776,353.913086 497.962860,373.050385 
	C497.294617,373.858734 496.239563,374.347382 494.525024,374.318390 
	C495.113800,373.331757 495.578766,372.240906 496.309082,371.373444 
	C531.494324,329.583557 515.994202,268.086517 465.081451,247.862701 
	C461.944519,246.616653 460.886200,244.909805 460.723694,241.617249 
	C459.387543,214.544754 449.447723,191.098404 430.281799,171.839783 
	C378.627167,119.935379 289.817474,137.135651 261.209564,204.502716 
	C260.577057,205.992172 259.898468,207.462021 258.940887,209.617386 
	C257.030487,208.314316 255.549530,207.395630 254.166702,206.347473 
	C227.581207,186.196732 190.805511,197.117828 179.823349,228.597870 
	C178.308716,232.939499 177.317780,237.715057 177.358414,242.278381 
	C177.400314,246.983566 175.345520,248.196182 171.390976,248.792679 
	C157.149292,250.940765 144.719086,257.037476 134.166183,266.787872 
	C120.255821,279.640381 112.350319,295.447876 110.776390,314.464691 
	C107.809517,350.311707 129.849503,374.561401 154.477051,386.554077 
	C173.295471,395.717957 193.005753,401.246185 213.978790,402.049530 
	C214.893066,402.084564 215.795242,402.436096 217.466431,402.811798 
	C216.400726,403.614441 215.949707,404.248718 215.528259,404.229614 
	C182.613403,402.739777 152.613174,393.671204 128.125992,370.406128 
	C126.925354,369.265442 125.930725,367.907867 124.625519,366.367706 
z"/>
<path fill="#B7B7B7" opacity="1.000000" stroke="none" 
	d="
M420.026001,403.027649 
	C411.670044,410.070984 404.221680,410.256714 393.998383,403.780151 
	C391.275848,409.957306 386.206757,406.619049 381.681641,407.192749 
	C381.681641,384.952057 381.681641,363.195129 381.681641,341.150970 
	C385.827240,341.150970 389.923553,341.150970 394.671021,341.150970 
	C394.671021,348.663116 394.671021,356.163666 394.671021,363.616547 
	C395.627441,363.616547 395.992920,363.725067 396.243225,363.601074 
	C412.496063,355.548462 425.085999,362.648895 426.512146,380.825226 
	C427.141205,388.842834 425.788879,396.430664 420.026001,403.027649 
M394.699310,392.227295 
	C394.089600,395.837494 396.073669,397.295197 399.264069,397.969574 
	C407.781647,399.770081 412.460083,396.309967 412.972717,387.631592 
	C413.109680,385.312561 413.106812,382.971008 412.964691,380.652252 
	C412.421570,371.791382 407.311066,368.327240 398.724579,370.674408 
	C395.896393,371.447510 394.511383,372.684662 394.641449,375.815765 
	C394.855316,380.963806 394.698730,386.127228 394.699310,392.227295 
z"/>
<path fill="#BBBBBB" opacity="1.000000" stroke="none" 
	d="
M376.981781,311.878845 
	C376.656677,305.403656 375.331360,299.119263 376.385468,293.263214 
	C378.975830,278.872711 391.435394,272.998138 404.712799,279.091522 
	C405.274658,279.349396 405.807648,279.670135 407.082764,280.350189 
	C407.082764,276.091278 407.082733,272.512543 407.082733,268.933838 
	C407.082733,265.302368 407.082764,261.670868 407.082764,257.734375 
	C411.565430,257.734375 415.638763,257.734375 419.926300,257.734375 
	C419.926300,279.742554 419.926300,301.518036 419.926300,324.114471 
	C415.682312,323.046112 410.704132,326.609161 407.291199,321.031403 
	C392.169189,328.158661 383.163055,325.582245 376.981781,311.878845 
M390.659210,310.566498 
	C391.390045,311.452179 392.041473,313.011841 392.865234,313.108948 
	C396.798370,313.572418 400.889496,314.302338 404.710510,313.661621 
	C408.596344,313.010040 406.924500,309.086487 407.034637,306.522705 
	C407.240814,301.722412 407.153839,296.905640 407.050934,292.098663 
	C407.024414,290.861542 406.881653,289.236755 406.113495,288.470917 
	C402.042175,284.412018 391.425323,286.651794 390.319305,292.358154 
	C389.228485,297.986084 390.204224,304.014587 390.659210,310.566498 
z"/>
<path fill="#BABABA" opacity="1.000000" stroke="none" 
	d="
M205.727661,275.591919 
	C198.045654,280.766632 198.578064,301.372955 202.965530,307.212708 
	C207.799194,313.646362 214.592743,314.345856 221.799088,313.626770 
	C225.255524,313.281891 228.672211,312.538513 232.875290,311.849701 
	C232.875290,314.899292 233.128174,317.676453 232.748535,320.364288 
	C232.600449,321.412720 231.185852,322.787476 230.081116,323.116211 
	C220.583176,325.941925 211.018814,326.100555 201.672867,322.584778 
	C194.921753,320.045074 190.408112,315.021515 187.945877,308.269623 
	C185.016937,300.237915 184.641312,291.882172 186.481644,283.676056 
	C190.098587,267.547882 202.009232,259.241699 218.789154,260.522919 
	C219.950623,260.611603 221.105194,260.787506 222.264603,260.907135 
	C232.396317,261.952698 232.772324,262.437897 231.449814,273.304932 
	C222.878326,272.357269 214.037430,269.645599 205.727661,275.591919 
z"/>
<path fill="#BBBBBB" opacity="1.000000" stroke="none" 
	d="
M257.423828,365.905212 
	C257.203217,372.524414 256.381226,378.863464 257.219421,384.974854 
	C258.228088,392.329224 263.143768,396.444519 270.543945,396.793335 
	C276.460785,397.072266 282.428925,396.262878 289.055481,395.899170 
	C289.055481,397.885742 289.378174,400.511963 288.928345,402.998413 
	C288.678772,404.377899 287.362244,406.300446 286.144653,406.650787 
	C277.352295,409.180847 268.416290,409.479401 259.651001,406.604797 
	C248.949722,403.095245 243.402390,394.853424 242.530060,384.251129 
	C241.917374,376.804504 242.299469,368.768097 244.509186,361.705841 
	C248.757706,348.127625 263.588196,341.416443 279.699402,344.289368 
	C288.935608,345.936340 288.935608,345.936371 287.732086,356.647369 
	C276.548767,355.656036 264.216400,351.198334 257.423828,365.905212 
z"/>
<path fill="#B9B9B9" opacity="1.000000" stroke="none" 
	d="
M339.739258,314.517029 
	C342.093933,314.755310 344.111450,315.066589 346.043427,314.786896 
	C350.060547,314.205292 352.353729,312.509735 352.109619,307.592041 
	C351.632660,297.982635 351.969604,288.332825 351.969604,278.362091 
	C356.316833,278.362091 360.388580,278.362091 364.801544,278.362091 
	C364.801544,293.325531 364.801544,308.371765 364.801544,324.133728 
	C360.790009,322.815674 355.355286,327.233948 353.165222,320.828583 
	C347.644348,322.293732 342.251160,324.487549 336.699554,325.015564 
	C328.816559,325.765289 324.075470,321.766907 323.709686,313.913605 
	C323.162567,302.165894 323.567596,290.373810 323.567596,278.312836 
	C327.852417,278.312836 331.921661,278.312836 336.571808,278.312836 
	C336.571808,287.694733 336.365265,296.983276 336.699921,306.252289 
	C336.798065,308.970825 338.432831,311.633911 339.739258,314.517029 
z"/>
<path fill="#BBBBBB" opacity="1.000000" stroke="none" 
	d="
M313.529785,301.863953 
	C312.208008,315.778992 306.554413,323.208771 296.363373,324.850708 
	C276.897369,327.986938 264.007721,314.079071 268.427582,294.708130 
	C271.417725,281.603302 279.691498,275.845001 294.097168,276.842957 
	C304.812958,277.585327 312.094727,285.381927 313.313446,297.446075 
	C313.446930,298.767548 313.464630,300.100739 313.529785,301.863953 
M299.781311,295.272430 
	C297.369904,288.301849 294.966095,286.371429 289.417358,286.949554 
	C284.823212,287.428253 281.902405,290.761108 281.503387,297.372345 
	C281.259979,301.405304 281.869110,305.593719 282.764130,309.561462 
	C283.624207,313.374329 286.642639,315.101898 290.584167,315.149506 
	C294.753967,315.199829 297.934052,313.340088 298.763916,309.353271 
	C299.659332,305.051697 299.567627,300.544647 299.781311,295.272430 
z"/>
<path fill="#BABABA" opacity="1.000000" stroke="none" 
	d="
M364.753571,361.324158 
	C367.417419,361.175964 368.999908,361.395020 368.974152,364.393982 
	C368.852936,378.519165 368.920166,392.645966 368.920166,407.042725 
	C365.308502,407.042725 362.017578,407.042725 358.452026,407.042725 
	C357.905243,405.916412 357.264343,404.596313 356.911224,403.868927 
	C351.820343,405.510773 346.935944,407.767365 341.822144,408.579224 
	C333.686890,409.870758 327.608704,405.200470 327.295502,397.296600 
	C326.829376,385.532349 327.174683,373.735962 327.174683,361.639832 
	C331.541504,361.639832 335.613159,361.639832 340.194550,361.639832 
	C340.194550,371.015961 340.148743,380.301544 340.208405,389.586395 
	C340.260193,397.644684 343.647156,400.112640 351.281830,397.902527 
	C354.523285,396.964172 356.086792,395.384247 355.961731,391.574951 
	C355.636047,381.654236 355.852142,371.715729 355.852142,361.323517 
	C359.043335,361.323517 361.669403,361.323517 364.753571,361.324158 
z"/>
<path fill="#BABABA" opacity="1.000000" stroke="none" 
	d="
M433.666748,400.071472 
	C433.386444,397.077271 434.370544,396.686096 436.861664,397.186920 
	C441.393402,398.098053 446.032593,398.911224 450.622162,398.886139 
	C452.491760,398.875885 454.348816,396.572449 456.211578,395.312347 
	C454.937744,393.608398 454.011322,391.290192 452.316040,390.331390 
	C449.024109,388.469513 445.217743,387.545654 441.774475,385.916290 
	C436.297516,383.324615 433.419922,378.992279 433.866302,372.754700 
	C434.288605,366.853210 437.851959,363.408020 443.055542,361.523560 
	C449.918976,359.037933 457.005798,359.307648 463.433411,362.362946 
	C465.392334,363.294128 465.777802,367.535461 467.262207,371.192932 
	C461.123596,370.646606 456.571899,369.866425 452.049255,370.008728 
	C450.009064,370.072937 448.026703,371.974854 446.018097,373.042969 
	C447.458862,374.622559 448.640106,376.643097 450.400757,377.679077 
	C453.087769,379.260132 456.210266,380.082184 459.085754,381.365601 
	C466.354401,384.609863 469.103638,388.881592 468.349457,395.557129 
	C467.617615,402.034515 463.228638,407.251251 456.070740,407.983734 
	C450.277039,408.576630 444.297791,407.486847 438.412170,407.004974 
	C434.442291,406.679932 433.044373,404.264069 433.666748,400.071472 
z"/>
<path fill="#BBBBBB" opacity="1.000000" stroke="none" 
	d="
M298.108795,356.005219 
	C298.108795,350.869232 298.108795,346.232239 298.108795,341.238464 
	C302.474518,341.238464 306.542664,341.238464 311.291199,341.238464 
	C311.291199,343.230835 311.291168,345.316772 311.291229,347.402710 
	C311.291626,361.886200 311.363525,376.370239 311.251007,390.852844 
	C311.215118,395.469788 311.884949,399.024048 318.199463,397.829956 
	C317.787476,401.235992 320.673218,405.004822 316.228760,407.060211 
	C310.431183,409.741394 302.585724,407.884186 300.258423,403.042633 
	C298.877106,400.168976 298.263092,396.686066 298.203064,393.460388 
	C297.973785,381.145325 298.109436,368.823517 298.108795,356.005219 
z"/>
<path fill="#BBBBBB" opacity="1.000000" stroke="none" 
	d="
M244.379913,257.442566 
	C248.126877,257.431824 251.415787,257.431824 255.045990,257.431824 
	C255.045990,274.651947 255.125168,291.293518 254.994766,307.933441 
	C254.958542,312.554993 255.778488,315.756134 263.210663,313.743774 
	C261.933868,317.912567 261.929718,322.289581 259.953461,323.533569 
	C254.716812,326.829834 246.047897,324.199585 243.715057,319.312836 
	C242.611099,317.000305 242.013763,314.225861 241.990250,311.653320 
	C241.837997,294.991516 241.858673,278.327301 241.991379,261.665222 
	C242.002594,260.256226 243.249191,258.857056 244.379913,257.442566 
z"/>
<path fill="#B4B4B4" opacity="1.000000" stroke="none" 
	d="
M238.518005,140.833405 
	C236.685669,146.750702 235.100616,152.341492 233.150986,157.802124 
	C232.648483,159.209564 230.999756,160.207764 229.877579,161.393951 
	C228.824188,160.206345 227.273621,159.184052 226.813110,157.799286 
	C225.566452,154.050354 224.782776,150.147461 223.005966,146.240799 
	C222.007889,150.209320 221.168640,154.228851 219.919922,158.116867 
	C219.518372,159.367157 218.047333,161.095810 217.046967,161.108215 
	C215.977707,161.121475 214.318604,159.562027 213.900604,158.349899 
	C211.796387,152.247849 210.013535,146.034988 208.117859,139.861023 
	C212.364700,138.578522 212.376572,138.575378 213.956085,144.538727 
	C214.754959,147.554794 215.501938,150.584595 217.542892,153.854691 
	C218.399185,150.255142 219.039246,146.583176 220.209915,143.088959 
	C220.735214,141.521011 222.322433,140.308838 223.427765,138.935226 
	C224.518112,140.300812 226.092484,141.507904 226.601929,143.063705 
	C227.802917,146.731522 228.496368,150.565521 230.467758,154.384415 
	C231.583908,150.171417 232.619400,145.934845 233.841461,141.752808 
	C234.836090,138.349075 235.643082,138.188751 238.518005,140.833405 
z"/>
<path fill="#B4B4B4" opacity="1.000000" stroke="none" 
	d="
M189.167236,173.006439 
	C187.868698,172.048782 186.851654,171.263458 185.834610,170.478134 
	C185.895645,170.004318 185.956680,169.530487 186.017715,169.056671 
	C208.094788,179.724945 230.557800,181.299072 253.462524,172.465439 
	C242.415787,184.726852 210.952789,189.504654 189.167236,173.006439 
z"/>
<path fill="#B4B4B4" opacity="1.000000" stroke="none" 
	d="
M206.837372,158.769272 
	C206.432678,159.770813 205.498352,160.910355 205.477661,160.893997 
	C201.548676,157.788452 198.467346,162.123001 194.915680,162.069763 
	C191.396530,162.016968 188.661026,160.781235 187.836456,157.123474 
	C186.955673,153.216232 188.299026,149.987869 192.248810,148.848007 
	C195.006287,148.052231 198.050110,148.248734 200.978256,148.000992 
	C201.516754,141.987579 201.436188,141.951599 189.043732,142.872437 
	C189.161453,142.053146 189.167618,140.660645 189.395767,140.623260 
	C193.349014,139.975632 197.525055,138.568634 201.225388,139.349960 
	C203.211441,139.769318 205.086136,143.838974 205.764709,146.571014 
	C206.703400,150.350296 206.467361,154.421371 206.837372,158.769272 
M199.032745,151.197250 
	C198.037903,151.180191 196.788742,150.774963 196.100510,151.225876 
	C194.611862,152.201218 192.927231,153.414749 192.296585,154.934845 
	C191.983170,155.690308 193.936264,158.448029 194.661804,158.371948 
	C196.772644,158.150574 199.184006,157.394821 200.700989,156.002548 
	C201.883301,154.917419 202.977295,152.335419 199.032745,151.197250 
z"/>
<path fill="#B4B4B4" opacity="1.000000" stroke="none" 
	d="
M247.267059,158.606506 
	C249.408066,157.639923 251.102875,156.642456 252.797668,155.644989 
	C251.255081,154.413712 249.800430,153.042938 248.140976,151.997101 
	C246.901199,151.215744 245.294022,151.026917 244.029297,150.273865 
	C239.555969,147.610382 239.718735,141.948929 244.270248,139.403564 
	C248.857697,136.838104 254.928802,138.522202 255.615082,142.631790 
	C253.351746,142.397369 251.088959,141.892456 248.869461,142.039780 
	C247.638382,142.121490 246.479599,143.292831 245.288239,143.973068 
	C246.169067,145.188873 246.813507,146.773697 247.990280,147.527512 
	C249.476471,148.479523 251.762009,148.328461 253.039902,149.425400 
	C254.758041,150.900208 256.878113,153.094879 256.911072,155.013443 
	C256.944580,156.964661 255.093597,159.636169 253.295959,160.798157 
	C248.470932,163.917007 241.912659,162.093964 240.609406,157.275253 
	C242.833252,157.740814 244.827057,158.158218 247.267059,158.606506 
z"/>
<path fill="#3F3F3F" opacity="1.000000" stroke="none" 
	d="
M146.348663,225.287140 
	C144.205338,228.907654 142.346695,232.286911 139.872437,236.785446 
	C138.609756,227.814667 134.318573,222.335724 125.084961,221.208649 
	C133.239578,218.719421 139.068314,214.581177 140.587799,205.234039 
	C142.059708,214.493240 147.421051,218.959930 156.944641,220.330948 
	C152.472244,222.375977 149.552795,223.710922 146.348663,225.287140 
M139.226913,226.800873 
	C139.954620,226.962433 141.053207,227.509659 141.350571,227.223724 
	C143.469666,225.185898 145.425217,222.978027 147.084564,221.197830 
	C144.651550,218.775024 142.332809,216.466003 140.023148,214.166031 
	C138.099228,216.183350 135.849075,218.542725 134.030670,220.449402 
	C135.701370,222.469009 137.279968,224.377289 139.226913,226.800873 
z"/>
<path fill="#3F3F3F" opacity="1.000000" stroke="none" 
	d="
M470.672424,147.328552 
	C474.105927,149.196472 477.272827,150.797470 481.598785,152.984436 
	C472.274872,154.101913 467.005249,158.888031 465.622894,168.120987 
	C463.882507,159.099350 458.839478,154.086075 449.452423,153.003067 
	C461.386169,146.365616 461.386169,146.365616 465.384888,137.263504 
	C467.106689,140.623520 468.756256,143.842560 470.672424,147.328552 
M469.178986,155.707779 
	C470.514526,154.627960 471.850067,153.548157 472.410187,153.095276 
	C469.789642,150.404449 467.387543,147.937943 465.890869,146.401138 
	C463.820984,148.356491 461.233856,150.800461 458.744202,153.152313 
	C460.610413,154.857666 463.118622,157.149673 465.801239,159.601074 
	C466.805939,158.417526 467.753662,157.301102 469.178986,155.707779 
z"/>
<path fill="#3F3F3F" opacity="1.000000" stroke="none" 
	d="
M484.564270,218.738007 
	C490.505035,216.349243 492.637329,211.424728 494.679626,205.587631 
	C495.865265,214.653641 501.325531,218.992386 509.867340,220.850098 
	C501.079956,222.451126 496.072968,227.195435 494.508972,236.180740 
	C492.598267,227.598022 488.232635,222.261536 479.123779,221.847244 
	C479.231628,221.390244 479.339478,220.933243 479.447327,220.476257 
	C481.034973,219.936752 482.622620,219.397247 484.564270,218.738007 
M499.017456,218.422607 
	C497.488251,216.778473 495.959045,215.134323 495.166260,214.281937 
	C492.450317,216.648636 489.986298,218.795807 487.613556,220.863449 
	C489.945923,223.135284 492.372803,225.499191 494.507141,227.578125 
	C496.231995,226.011536 498.082245,224.077423 500.189697,222.483276 
	C502.640564,220.629364 500.808960,219.862732 499.017456,218.422607 
z"/>
<path fill="#3F3F3F" opacity="1.000000" stroke="none" 
	d="
M252.238815,105.475662 
	C255.486511,101.553276 258.394073,97.792549 261.458862,93.828445 
	C262.475098,101.270638 267.077240,106.415817 275.970337,108.116570 
	C267.004608,109.484909 262.502686,114.708664 260.726013,123.382195 
	C258.943207,114.695419 254.407715,109.522339 245.758255,107.764175 
	C247.805069,107.055229 249.851868,106.346283 252.238815,105.475662 
M256.614899,105.099205 
	C255.555450,106.053673 254.495987,107.008148 254.132187,107.335899 
	C256.714478,109.924271 259.079712,112.295044 261.392029,114.612808 
	C263.179993,112.714020 265.388275,110.368889 267.111847,108.538475 
	C264.800812,105.880913 262.616364,103.368919 260.416016,100.838646 
	C259.254089,102.165916 258.174286,103.399376 256.614899,105.099205 
z"/>
<path fill="#AAAAAA" opacity="1.000000" stroke="none" 
	d="
M256.448242,166.757935 
	C259.188263,166.797775 260.729980,167.565582 260.261169,170.335266 
	C259.593292,174.281357 258.598175,178.027527 254.637955,180.533737 
	C256.555939,170.457413 256.555939,170.457413 246.790634,169.587479 
	C246.697968,169.161957 246.605286,168.736435 246.512619,168.310913 
	C249.696732,167.782135 252.880829,167.253372 256.448242,166.757935 
z"/>
<path fill="#040404" opacity="1.000000" stroke="none" 
	d="
M394.698792,391.755737 
	C394.698730,386.127228 394.855316,380.963806 394.641449,375.815765 
	C394.511383,372.684662 395.896393,371.447510 398.724579,370.674408 
	C407.311066,368.327240 412.421570,371.791382 412.964691,380.652252 
	C413.106812,382.971008 413.109680,385.312561 412.972717,387.631592 
	C412.460083,396.309967 407.781647,399.770081 399.264069,397.969574 
	C396.073669,397.295197 394.089600,395.837494 394.698792,391.755737 
z"/>
<path fill="#040404" opacity="1.000000" stroke="none" 
	d="
M390.466248,310.216919 
	C390.204224,304.014587 389.228485,297.986084 390.319305,292.358154 
	C391.425323,286.651794 402.042175,284.412018 406.113495,288.470917 
	C406.881653,289.236755 407.024414,290.861542 407.050934,292.098663 
	C407.153839,296.905640 407.240814,301.722412 407.034637,306.522705 
	C406.924500,309.086487 408.596344,313.010040 404.710510,313.661621 
	C400.889496,314.302338 396.798370,313.572418 392.865234,313.108948 
	C392.041473,313.011841 391.390045,311.452179 390.466248,310.216919 
z"/>
<path fill="#050505" opacity="1.000000" stroke="none" 
	d="
M299.843933,295.699829 
	C299.567627,300.544647 299.659332,305.051697 298.763916,309.353271 
	C297.934052,313.340088 294.753967,315.199829 290.584167,315.149506 
	C286.642639,315.101898 283.624207,313.374329 282.764130,309.561462 
	C281.869110,305.593719 281.259979,301.405304 281.503387,297.372345 
	C281.902405,290.761108 284.823212,287.428253 289.417358,286.949554 
	C294.966095,286.371429 297.369904,288.301849 299.843933,295.699829 
z"/>
<path fill="#141414" opacity="1.000000" stroke="none" 
	d="
M199.416519,151.270386 
	C202.977295,152.335419 201.883301,154.917419 200.700989,156.002548 
	C199.184006,157.394821 196.772644,158.150574 194.661804,158.371948 
	C193.936264,158.448029 191.983170,155.690308 192.296585,154.934845 
	C192.927231,153.414749 194.611862,152.201218 196.100510,151.225876 
	C196.788742,150.774963 198.037903,151.180191 199.416519,151.270386 
z"/>
<path fill="#050505" opacity="1.000000" stroke="none" 
	d="
M139.042740,226.543213 
	C137.279968,224.377289 135.701370,222.469009 134.030670,220.449402 
	C135.849075,218.542725 138.099228,216.183350 140.023148,214.166031 
	C142.332809,216.466003 144.651550,218.775024 147.084564,221.197830 
	C145.425217,222.978027 143.469666,225.185898 141.350571,227.223724 
	C141.053207,227.509659 139.954620,226.962433 139.042740,226.543213 
z"/>
<path fill="#050505" opacity="1.000000" stroke="none" 
	d="
M468.940186,155.946228 
	C467.753662,157.301102 466.805939,158.417526 465.801239,159.601074 
	C463.118622,157.149673 460.610413,154.857666 458.744202,153.152313 
	C461.233856,150.800461 463.820984,148.356491 465.890869,146.401138 
	C467.387543,147.937943 469.789642,150.404449 472.410187,153.095276 
	C471.850067,153.548157 470.514526,154.627960 468.940186,155.946228 
z"/>
<path fill="#040404" opacity="1.000000" stroke="none" 
	d="
M499.274231,218.637665 
	C500.808960,219.862732 502.640564,220.629364 500.189697,222.483276 
	C498.082245,224.077423 496.231995,226.011536 494.507141,227.578125 
	C492.372803,225.499191 489.945923,223.135284 487.613556,220.863449 
	C489.986298,218.795807 492.450317,216.648636 495.166260,214.281937 
	C495.959045,215.134323 497.488251,216.778473 499.274231,218.637665 
z"/>
<path fill="#040404" opacity="1.000000" stroke="none" 
	d="
M256.854675,104.866013 
	C258.174286,103.399376 259.254089,102.165916 260.416016,100.838646 
	C262.616364,103.368919 264.800812,105.880913 267.111847,108.538475 
	C265.388275,110.368889 263.179993,112.714020 261.392029,114.612808 
	C259.079712,112.295044 256.714478,109.924271 254.132187,107.335899 
	C254.495987,107.008148 255.555450,106.053673 256.854675,104.866013 
z"/>
</svg>